<svg width="35" height="14" viewBox="0 0 35 14" fill="none" xmlns="http://www.w3.org/2000/svg">
<g clip-path="url(#clip0_1_2)">
<path d="M3.66016 4.66016L2.56445 11H1.08789L2.18945 4.66016H3.66016ZM2.40625 3.03125C2.41016 2.79688 2.48633 2.59766 2.63477 2.43359C2.7832 2.26953 2.97852 2.18555 3.2207 2.18164C3.45117 2.17773 3.64062 2.25391 3.78906 2.41016C3.94141 2.5625 4.01758 2.75586 4.01758 2.99023C4.01758 3.2168 3.94141 3.41211 3.78906 3.57617C3.64062 3.74023 3.44727 3.82422 3.20898 3.82812C2.97852 3.83594 2.78711 3.76367 2.63477 3.61133C2.48633 3.45898 2.41016 3.26562 2.40625 3.03125ZM7.9082 8.73242C7.93164 8.54102 7.92383 8.37695 7.88477 8.24023C7.84961 8.10352 7.78711 7.98242 7.69727 7.87695C7.60742 7.77148 7.49609 7.67773 7.36328 7.5957C7.23438 7.51367 7.0918 7.43555 6.93555 7.36133C6.6582 7.23633 6.39648 7.0918 6.15039 6.92773C5.9082 6.76367 5.69531 6.57812 5.51172 6.37109C5.33203 6.16406 5.19531 5.92969 5.10156 5.66797C5.01172 5.40234 4.97852 5.10352 5.00195 4.77148C5.0293 4.39648 5.12305 4.05859 5.2832 3.75781C5.44727 3.45703 5.66016 3.20117 5.92188 2.99023C6.1875 2.77539 6.48633 2.61328 6.81836 2.50391C7.15039 2.39453 7.49609 2.34375 7.85547 2.35156C8.36328 2.36328 8.78906 2.48633 9.13281 2.7207C9.47656 2.95508 9.73047 3.26953 9.89453 3.66406C10.0625 4.05859 10.1348 4.49609 10.1113 4.97656L8.58789 4.9707C8.60352 4.75586 8.5918 4.54883 8.55273 4.34961C8.51367 4.14648 8.42969 3.98047 8.30078 3.85156C8.17188 3.71875 7.97852 3.64844 7.7207 3.64062C7.49805 3.63672 7.30078 3.68555 7.12891 3.78711C6.95703 3.88867 6.81836 4.02539 6.71289 4.19727C6.60742 4.36523 6.53906 4.55664 6.50781 4.77148C6.48828 4.93555 6.50586 5.08203 6.56055 5.21094C6.61523 5.33984 6.69141 5.45508 6.78906 5.55664C6.89062 5.6582 7.00586 5.74805 7.13477 5.82617C7.26367 5.9043 7.39258 5.97266 7.52148 6.03125C7.82227 6.16797 8.09375 6.32031 8.33594 6.48828C8.58203 6.65234 8.79102 6.83984 8.96289 7.05078C9.13867 7.26172 9.26562 7.50391 9.34375 7.77734C9.42578 8.05078 9.45312 8.36523 9.42578 8.7207C9.39453 9.10742 9.30078 9.45117 9.14453 9.75195C8.98828 10.0488 8.7832 10.3008 8.5293 10.5078C8.27539 10.7148 7.98438 10.8711 7.65625 10.9766C7.32812 11.082 6.97461 11.1309 6.5957 11.123C6.19727 11.1113 5.83984 11.0352 5.52344 10.8945C5.21094 10.7539 4.94922 10.5586 4.73828 10.3086C4.52734 10.0586 4.36914 9.76758 4.26367 9.43555C4.1582 9.10352 4.11523 8.74414 4.13477 8.35742L5.66992 8.36328C5.6582 8.55469 5.66211 8.74023 5.68164 8.91992C5.70508 9.0957 5.75391 9.25195 5.82812 9.38867C5.90625 9.52539 6.01758 9.63281 6.16211 9.71094C6.30664 9.78906 6.49219 9.83008 6.71875 9.83398C6.94141 9.83398 7.13672 9.78906 7.30469 9.69922C7.47266 9.60547 7.60742 9.47656 7.70898 9.3125C7.81445 9.14453 7.88086 8.95117 7.9082 8.73242ZM12.4609 5.96094L11.1602 13.4375H9.70117L11.2246 4.66016H12.5664L12.4609 5.96094ZM15.4141 7.5957L15.3613 8.05273C15.3184 8.39258 15.2461 8.74414 15.1445 9.10742C15.0469 9.4707 14.9062 9.80859 14.7227 10.1211C14.543 10.4297 14.3086 10.6777 14.0195 10.8652C13.7305 11.0488 13.377 11.1328 12.959 11.1172C12.6074 11.1055 12.3242 11.002 12.1094 10.8066C11.8945 10.6113 11.7324 10.3652 11.623 10.0684C11.5176 9.77148 11.4492 9.45898 11.418 9.13086C11.3867 8.80273 11.3809 8.50195 11.4004 8.22852L11.4883 7.51953C11.543 7.21094 11.623 6.88477 11.7285 6.54102C11.8379 6.19336 11.9844 5.86719 12.168 5.5625C12.3555 5.25391 12.584 5.00391 12.8535 4.8125C13.123 4.61719 13.4453 4.52539 13.8203 4.53711C14.2344 4.54492 14.5566 4.64844 14.7871 4.84766C15.0215 5.04297 15.1895 5.29492 15.291 5.60352C15.3926 5.9082 15.4473 6.23828 15.4551 6.59375C15.4629 6.94531 15.4492 7.2793 15.4141 7.5957ZM13.8906 8.05859L13.9375 7.58398C13.9531 7.43555 13.9688 7.26172 13.9844 7.0625C14 6.86328 13.9941 6.66797 13.9668 6.47656C13.9395 6.28516 13.873 6.12695 13.7676 6.00195C13.6621 5.87305 13.5 5.80469 13.2812 5.79688C13.082 5.78906 12.9102 5.82812 12.7656 5.91406C12.6211 6 12.498 6.11328 12.3965 6.25391C12.2988 6.39453 12.2188 6.55078 12.1562 6.72266C12.0938 6.89062 12.0488 7.05664 12.0215 7.2207L11.834 8.52734C11.8223 8.72266 11.832 8.92188 11.8633 9.125C11.8984 9.32812 11.9746 9.5 12.0918 9.64062C12.2129 9.78125 12.3926 9.85742 12.6309 9.86914C12.8691 9.88086 13.0664 9.83008 13.2227 9.7168C13.3789 9.59961 13.502 9.44727 13.5918 9.25977C13.6816 9.07227 13.748 8.87109 13.791 8.65625C13.8379 8.44141 13.8711 8.24219 13.8906 8.05859ZM18.3906 11.1172C17.9688 11.1094 17.6094 11.0273 17.3125 10.8711C17.0195 10.7148 16.7871 10.502 16.6152 10.2324C16.4434 9.95898 16.3262 9.65039 16.2637 9.30664C16.2051 8.96289 16.1934 8.59961 16.2285 8.2168L16.2988 7.64844C16.3496 7.25 16.4414 6.86328 16.5742 6.48828C16.7109 6.11328 16.8926 5.77734 17.1191 5.48047C17.3496 5.17969 17.6328 4.94531 17.9688 4.77734C18.3047 4.60938 18.6992 4.5293 19.1523 4.53711C19.5859 4.54883 19.9355 4.64648 20.2012 4.83008C20.4668 5.00977 20.666 5.24805 20.7988 5.54492C20.9355 5.83789 21.0176 6.16406 21.0449 6.52344C21.0762 6.88281 21.0684 7.24219 21.0215 7.60156L20.916 8.32227H16.8496L17.043 7.22656L19.6152 7.23242L19.6445 7.06836C19.6719 6.88867 19.6797 6.70312 19.668 6.51172C19.6562 6.31641 19.6035 6.15039 19.5098 6.01367C19.416 5.87695 19.2539 5.80078 19.0234 5.78516C18.7773 5.77344 18.5762 5.82812 18.4199 5.94922C18.2637 6.06641 18.1406 6.22266 18.0508 6.41797C17.9648 6.61328 17.9004 6.82031 17.8574 7.03906C17.8184 7.25781 17.7891 7.46094 17.7695 7.64844L17.6992 8.22266C17.6797 8.40625 17.6699 8.5918 17.6699 8.7793C17.6738 8.9668 17.7012 9.14258 17.752 9.30664C17.8066 9.4668 17.8965 9.59766 18.0215 9.69922C18.1504 9.80078 18.332 9.85352 18.5664 9.85742C18.8477 9.86523 19.1055 9.8125 19.3398 9.69922C19.5742 9.58594 19.793 9.43945 19.9961 9.25977L20.5293 10.1797C20.3691 10.3984 20.1719 10.5781 19.9375 10.7188C19.707 10.8594 19.457 10.9609 19.1875 11.0234C18.9219 11.0898 18.6562 11.1211 18.3906 11.1172ZM23.7637 6.05469L22.9023 11H21.4375L22.5391 4.66016H23.9277L23.7637 6.05469ZM25.4453 4.60742L25.2578 6.10156C25.1719 6.08594 25.0859 6.07227 25 6.06055C24.9141 6.04883 24.8301 6.04297 24.748 6.04297C24.541 6.03906 24.3613 6.07422 24.209 6.14844C24.0605 6.22266 23.9336 6.32617 23.8281 6.45898C23.7227 6.5918 23.6367 6.74219 23.5703 6.91016C23.5039 7.07812 23.4512 7.25 23.4121 7.42578L23.125 7.37891C23.1562 7.12891 23.207 6.8418 23.2773 6.51758C23.3477 6.18945 23.4492 5.87305 23.582 5.56836C23.7148 5.25977 23.8926 5.00781 24.1152 4.8125C24.3379 4.61719 24.6191 4.52148 24.959 4.52539C25.0449 4.5293 25.127 4.53906 25.2051 4.55469C25.2832 4.57031 25.3633 4.58789 25.4453 4.60742ZM27.5605 6.04297L26.6992 11H25.2344L26.3359 4.66016H27.707L27.5605 6.04297ZM27.0801 7.60742L26.6582 7.61914C26.6973 7.2793 26.7656 6.92773 26.8633 6.56445C26.9648 6.19727 27.1074 5.85938 27.291 5.55078C27.4746 5.23828 27.7109 4.98828 28 4.80078C28.293 4.61328 28.6484 4.52539 29.0664 4.53711C29.3672 4.54492 29.6094 4.61914 29.793 4.75977C29.9766 4.90039 30.1133 5.08203 30.2031 5.30469C30.2969 5.52344 30.3535 5.76172 30.373 6.01953C30.3965 6.27344 30.3945 6.52344 30.3672 6.76953L29.6641 11H28.2051L28.8789 6.93359C28.8945 6.77344 28.8984 6.60742 28.8906 6.43555C28.8828 6.25977 28.8398 6.11133 28.7617 5.99023C28.6836 5.86914 28.541 5.80469 28.334 5.79688C28.1035 5.78906 27.9141 5.8457 27.7656 5.9668C27.6172 6.08398 27.4961 6.24023 27.4023 6.43555C27.3086 6.62695 27.2363 6.82812 27.1855 7.03906C27.1348 7.24609 27.0996 7.43555 27.0801 7.60742ZM30.1855 7.34375L29.6172 7.4668C29.6445 7.13867 29.707 6.80078 29.8047 6.45312C29.9023 6.10547 30.041 5.78711 30.2207 5.49805C30.4043 5.20508 30.6348 4.9707 30.9121 4.79492C31.1934 4.61523 31.5332 4.5293 31.9316 4.53711C32.2637 4.54492 32.5273 4.62305 32.7227 4.77148C32.918 4.91992 33.0625 5.11133 33.1562 5.3457C33.25 5.58008 33.3066 5.83594 33.3262 6.11328C33.3457 6.39062 33.3398 6.66211 33.3086 6.92773L32.6348 11H31.1582L31.8379 6.92188C31.8535 6.76562 31.8574 6.60156 31.8496 6.42969C31.8457 6.25391 31.8027 6.10742 31.7207 5.99023C31.6426 5.86914 31.498 5.80664 31.2871 5.80273C31.0918 5.79883 30.9297 5.84766 30.8008 5.94922C30.6719 6.05078 30.5645 6.18359 30.4785 6.34766C30.3965 6.50781 30.334 6.67773 30.291 6.85742C30.248 7.0332 30.2129 7.19531 30.1855 7.34375Z" fill="#00C3B5"/>
</g>
<defs>
<clipPath id="clip0_1_2">
<rect width="35" height="14" fill="white"/>
</clipPath>
</defs>
</svg>
