<svg width="37" height="12" viewBox="0 0 37 12" fill="none" xmlns="http://www.w3.org/2000/svg">
<path d="M3.0293 2.60742L1.93359 8.94727H0L1.10156 2.60742H3.0293ZM1.27148 1.00781C1.26367 0.703125 1.36523 0.460938 1.57617 0.28125C1.79102 0.101562 2.04297 0.00976563 2.33203 0.00585938C2.60938 0.00195312 2.85547 0.0839844 3.07031 0.251953C3.28516 0.416016 3.39453 0.644531 3.39844 0.9375C3.40625 1.24219 3.30273 1.48437 3.08789 1.66406C2.87695 1.84375 2.62695 1.93555 2.33789 1.93945C2.06055 1.94336 1.81445 1.86328 1.59961 1.69922C1.38867 1.53125 1.2793 1.30078 1.27148 1.00781ZM7.61156 6.63867C7.64672 6.45508 7.63305 6.29883 7.57055 6.16992C7.51195 6.04102 7.42211 5.93164 7.30102 5.8418C7.18383 5.75195 7.04906 5.67578 6.89672 5.61328C6.74828 5.54688 6.60375 5.48633 6.46313 5.43164C6.15844 5.31055 5.85766 5.17383 5.56078 5.02148C5.26391 4.86523 4.99438 4.68164 4.75219 4.4707C4.51 4.25977 4.32055 4.01367 4.18383 3.73242C4.05102 3.45117 3.99438 3.12109 4.01391 2.74219C4.04125 2.30859 4.1643 1.93555 4.38305 1.62305C4.6018 1.31055 4.88109 1.05664 5.22094 0.861328C5.56469 0.662109 5.93383 0.517578 6.32836 0.427734C6.7268 0.333984 7.11547 0.291016 7.49438 0.298828C8.03344 0.306641 8.51391 0.416016 8.93578 0.626953C9.36156 0.837891 9.69555 1.14063 9.93773 1.53516C10.1799 1.92578 10.2971 2.39844 10.2893 2.95312H8.30297C8.31078 2.73438 8.28148 2.54492 8.21508 2.38477C8.15258 2.2207 8.04906 2.09375 7.90453 2.00391C7.76 1.91016 7.5725 1.86133 7.34203 1.85742C7.15063 1.85352 6.95922 1.88477 6.76781 1.95117C6.57641 2.01367 6.41039 2.11133 6.26977 2.24414C6.12914 2.37695 6.0393 2.54883 6.00023 2.75977C5.97289 2.91992 5.99828 3.06055 6.07641 3.18164C6.15453 3.29883 6.26195 3.40039 6.39867 3.48633C6.53539 3.56836 6.67797 3.63867 6.82641 3.69727C6.97875 3.75586 7.11156 3.80664 7.22484 3.84961C7.54516 3.9707 7.8518 4.11328 8.14477 4.27734C8.44164 4.4375 8.70336 4.62695 8.92992 4.8457C9.16039 5.06445 9.33617 5.32031 9.45727 5.61328C9.58227 5.90234 9.63305 6.23828 9.60961 6.62109C9.57836 7.0625 9.46117 7.43945 9.25805 7.75195C9.05492 8.06445 8.7932 8.31836 8.47289 8.51367C8.15258 8.70898 7.80102 8.85156 7.4182 8.94141C7.03539 9.03125 6.64672 9.07422 6.25219 9.07031C5.81078 9.0625 5.39867 8.99609 5.01586 8.87109C4.63305 8.74219 4.29906 8.55664 4.01391 8.31445C3.72875 8.06836 3.50805 7.76758 3.3518 7.41211C3.19555 7.05273 3.12133 6.64062 3.12914 6.17578L5.13891 6.18164C5.12719 6.40039 5.14086 6.59375 5.17992 6.76172C5.22289 6.92578 5.2932 7.06445 5.39086 7.17773C5.49242 7.28711 5.62328 7.37109 5.78344 7.42969C5.94359 7.48438 6.13695 7.51172 6.36352 7.51172C6.55492 7.51172 6.73852 7.48242 6.9143 7.42383C7.09398 7.36133 7.24633 7.26562 7.37133 7.13672C7.49633 7.00781 7.57641 6.8418 7.61156 6.63867ZM12.7212 3.93164L11.4263 11.3848H9.49852L11.022 2.60742H12.8091L12.7212 3.93164ZM16.1782 5.66602L16.1606 5.78906C16.1177 6.17188 16.0298 6.55859 15.897 6.94922C15.768 7.33984 15.5903 7.69727 15.3638 8.02148C15.1411 8.3457 14.8638 8.60547 14.5317 8.80078C14.1997 8.99219 13.8091 9.08203 13.3598 9.07031C12.9653 9.05859 12.643 8.94922 12.393 8.74219C12.143 8.53125 11.9477 8.26562 11.8071 7.94531C11.6704 7.62109 11.5747 7.2793 11.52 6.91992C11.4692 6.55664 11.4477 6.21875 11.4555 5.90625L11.4731 5.73633C11.5317 5.39258 11.6294 5.0293 11.7661 4.64648C11.9028 4.26367 12.0825 3.9082 12.3052 3.58008C12.5278 3.24805 12.7954 2.98047 13.1079 2.77734C13.4204 2.57031 13.7837 2.47266 14.1977 2.48438C14.6313 2.49609 14.9868 2.59961 15.2641 2.79492C15.5415 2.98633 15.7524 3.23828 15.897 3.55078C16.0415 3.85938 16.1333 4.19922 16.1723 4.57031C16.2114 4.94141 16.2134 5.30664 16.1782 5.66602ZM14.2388 5.7832L14.2505 5.66016C14.2622 5.51953 14.272 5.35742 14.2798 5.17383C14.2876 4.99023 14.2759 4.81055 14.2446 4.63477C14.2173 4.45898 14.1528 4.3125 14.0513 4.19531C13.9536 4.07422 13.8032 4.00977 13.6001 4.00195C13.3618 3.99023 13.1626 4.02734 13.0024 4.11328C12.8423 4.19922 12.7114 4.31836 12.6098 4.4707C12.5122 4.62305 12.436 4.79492 12.3813 4.98633C12.3266 5.17383 12.2876 5.36719 12.2641 5.56641L12.2114 6.04688C12.1841 6.26953 12.1782 6.49609 12.1938 6.72656C12.2095 6.95312 12.2759 7.14453 12.393 7.30078C12.5141 7.45703 12.7173 7.53906 13.0024 7.54688C13.229 7.55078 13.4165 7.49609 13.5649 7.38281C13.7173 7.26953 13.8384 7.12109 13.9282 6.9375C14.022 6.75391 14.0923 6.56055 14.1391 6.35742C14.186 6.15039 14.2192 5.95898 14.2388 5.7832ZM19.3542 9.06445C18.9167 9.05664 18.5183 8.97656 18.1589 8.82422C17.7995 8.66797 17.4948 8.45312 17.2448 8.17969C16.9948 7.90625 16.8093 7.58594 16.6882 7.21875C16.571 6.84766 16.528 6.44336 16.5593 6.00586L16.5827 5.77734C16.6296 5.31641 16.739 4.88672 16.9109 4.48828C17.0827 4.08594 17.3132 3.73438 17.6023 3.43359C17.8913 3.12891 18.2312 2.89258 18.6218 2.72461C19.0163 2.55664 19.4577 2.47852 19.946 2.49023C20.3874 2.49805 20.7683 2.58594 21.0886 2.75391C21.4128 2.92188 21.6765 3.15039 21.8796 3.43945C22.0827 3.72461 22.2234 4.05273 22.3015 4.42383C22.3835 4.79102 22.403 5.18164 22.3601 5.5957L22.2488 6.39844H17.2097L17.4089 5.16211L20.5144 5.16797L20.5495 4.99805C20.5769 4.81445 20.5691 4.64844 20.5261 4.5C20.4831 4.35156 20.403 4.23438 20.2859 4.14844C20.1687 4.05859 20.0105 4.00977 19.8113 4.00195C19.5691 3.99805 19.3679 4.05078 19.2077 4.16016C19.0515 4.26953 18.9245 4.41406 18.8269 4.59375C18.7331 4.77344 18.6609 4.96875 18.6101 5.17969C18.5593 5.38672 18.5222 5.58594 18.4988 5.77734L18.4753 6C18.4597 6.19141 18.4655 6.37695 18.4929 6.55664C18.5202 6.73633 18.5749 6.89844 18.657 7.04297C18.7429 7.1875 18.8581 7.30469 19.0027 7.39453C19.1472 7.48047 19.3288 7.52734 19.5476 7.53516C19.8405 7.54297 20.114 7.48828 20.3679 7.37109C20.6218 7.25391 20.8503 7.09375 21.0534 6.89062L21.8562 7.95703C21.6804 8.22266 21.4538 8.4375 21.1765 8.60156C20.8991 8.76172 20.6003 8.87891 20.28 8.95312C19.9636 9.03125 19.655 9.06836 19.3542 9.06445ZM25.0791 4.2832L24.2705 8.94727H22.3427L23.4443 2.60742H25.2373L25.0791 4.2832ZM27.1533 2.55469L26.9013 4.39453C26.7998 4.37891 26.6982 4.36523 26.5966 4.35352C26.4951 4.3418 26.3916 4.33398 26.2861 4.33008C26.0713 4.32617 25.8759 4.35156 25.7002 4.40625C25.5283 4.45703 25.3779 4.53711 25.249 4.64648C25.124 4.75195 25.0205 4.88477 24.9384 5.04492C24.8564 5.20508 24.7959 5.39062 24.7568 5.60156L24.4345 5.36719C24.4736 5.07031 24.5361 4.75586 24.622 4.42383C24.7119 4.08789 24.8369 3.77148 24.997 3.47461C25.1572 3.17773 25.3642 2.9375 25.6181 2.75391C25.872 2.56641 26.1845 2.47266 26.5556 2.47266C26.6572 2.47266 26.7568 2.48047 26.8545 2.49609C26.9521 2.51172 27.0517 2.53125 27.1533 2.55469ZM29.298 4.05469L28.4484 8.94727H26.5207L27.6223 2.60742H29.4211L29.298 4.05469ZM28.8176 5.56055L28.4016 5.57812C28.4406 5.19922 28.5207 4.82422 28.6418 4.45312C28.7668 4.08203 28.9387 3.74609 29.1574 3.44531C29.3762 3.14453 29.6477 2.90625 29.9719 2.73047C30.2961 2.55469 30.675 2.47266 31.1086 2.48438C31.4289 2.49219 31.6945 2.56055 31.9055 2.68945C32.1164 2.81445 32.2805 2.98242 32.3977 3.19336C32.5187 3.40039 32.5969 3.63672 32.632 3.90234C32.6711 4.16406 32.677 4.43555 32.6496 4.7168L31.9465 8.94727H30.0187L30.6809 4.96289C30.7004 4.79883 30.7043 4.64453 30.6926 4.5C30.6809 4.35547 30.634 4.23828 30.552 4.14844C30.4699 4.05469 30.3312 4.00586 30.1359 4.00195C29.925 3.99414 29.7434 4.03906 29.591 4.13672C29.4387 4.23047 29.3098 4.35547 29.2043 4.51172C29.1027 4.66797 29.0187 4.83789 28.9523 5.02148C28.8898 5.20508 28.8449 5.38477 28.8176 5.56055ZM32.3273 5.56055L31.8176 5.57812C31.8566 5.19922 31.9348 4.82617 32.052 4.45898C32.173 4.08789 32.3391 3.75195 32.55 3.45117C32.7648 3.15039 33.0324 2.91211 33.3527 2.73633C33.673 2.56055 34.052 2.47656 34.4895 2.48438C34.841 2.49609 35.1301 2.57227 35.3566 2.71289C35.5832 2.85352 35.7551 3.04102 35.8723 3.27539C35.9934 3.50977 36.0715 3.77148 36.1066 4.06055C36.1418 4.34961 36.1437 4.64844 36.1125 4.95703L35.4445 8.94727H33.5109L34.1789 4.95117C34.1984 4.79102 34.2023 4.64062 34.1906 4.5C34.1789 4.35547 34.132 4.23828 34.05 4.14844C33.9719 4.05469 33.8371 4.00586 33.6457 4.00195C33.427 3.99414 33.2395 4.03711 33.0832 4.13086C32.9309 4.22461 32.8039 4.34961 32.7023 4.50586C32.6008 4.6582 32.5207 4.82812 32.4621 5.01562C32.4035 5.19922 32.3586 5.38086 32.3273 5.56055Z" fill="#009B94"/>
</svg>
