<svg width="32" height="32" viewBox="0 0 32 32" fill="none" xmlns="http://www.w3.org/2000/svg">
<rect width="32" height="32" fill="#1E1E1E"/>
<g clip-path="url(#clip0_0_1)">
<rect width="32" height="32" rx="5" fill="#009B94"/>
<path d="M4.95 26.5V11.62H9.36V26.5H4.95ZM7.14 9.43C6.4 9.43 5.8 9.22 5.34 8.8C4.88 8.38 4.65 7.82 4.65 7.12C4.65 6.42 4.88 5.86 5.34 5.44C5.8 5.02 6.4 4.81 7.14 4.81C7.88 4.81 8.48 5.02 8.94 5.44C9.4 5.86 9.63 6.42 9.63 7.12C9.63 7.82 9.4 8.38 8.94 8.8C8.48 9.22 7.88 9.43 7.14 9.43ZM22.7842 20.9336C22.7842 20.5527 22.7158 20.1963 22.5791 19.8643C22.4521 19.5322 22.2324 19.2197 21.9199 18.9268C21.5977 18.6436 21.1777 18.3848 20.6602 18.1504C20.1523 17.9062 19.5176 17.6816 18.7559 17.4766C17.5742 17.1543 16.5342 16.7637 15.6357 16.3047C14.7471 15.8457 14.0195 15.3428 13.4531 14.7959C12.8867 14.249 12.457 13.6436 12.1641 12.9795C11.8809 12.3154 11.7393 11.5928 11.7393 10.8115C11.7393 9.91309 11.9297 9.09766 12.3105 8.36523C12.6914 7.63281 13.2188 7.00781 13.8926 6.49023C14.5664 5.97266 15.3623 5.57715 16.2803 5.30371C17.1982 5.02051 18.1943 4.87891 19.2686 4.87891C20.3818 4.87891 21.3975 5.04004 22.3154 5.3623C23.2432 5.68457 24.0391 6.13379 24.7031 6.70996C25.3672 7.2959 25.8848 7.98926 26.2559 8.79004C26.627 9.59082 26.8125 10.4697 26.8125 11.4268H22.7988C22.7793 10.9482 22.6914 10.5088 22.5352 10.1084C22.3887 9.70801 22.1689 9.36133 21.876 9.06836C21.5732 8.78516 21.1973 8.56543 20.748 8.40918C20.3086 8.24316 19.791 8.16016 19.1953 8.16016C18.6484 8.16016 18.1602 8.22852 17.7305 8.36523C17.3105 8.49219 16.9541 8.67285 16.6611 8.90723C16.3682 9.15137 16.1436 9.43945 15.9873 9.77148C15.8408 10.0938 15.7676 10.4453 15.7676 10.8262C15.7676 11.2266 15.8652 11.5879 16.0605 11.9102C16.2656 12.2324 16.5586 12.5205 16.9395 12.7744C17.3203 13.0381 17.7793 13.2773 18.3164 13.4922C18.8633 13.707 19.4785 13.9072 20.1621 14.0928C20.8945 14.2979 21.5928 14.5469 22.2568 14.8398C22.9209 15.1328 23.5312 15.4697 24.0879 15.8506C24.9277 16.4756 25.5967 17.2031 26.0947 18.0332C26.5928 18.8633 26.8418 19.8203 26.8418 20.9043C26.8418 21.8418 26.6514 22.6768 26.2705 23.4092C25.8994 24.1318 25.3818 24.7422 24.7178 25.2402C24.0537 25.748 23.2627 26.1338 22.3447 26.3975C21.4268 26.6514 20.4258 26.7783 19.3418 26.7783C18.2773 26.7783 17.2227 26.6221 16.1777 26.3096C15.1426 25.9873 14.2393 25.5186 13.4678 24.9033C12.7354 24.2979 12.1543 23.585 11.7246 22.7646C11.3047 21.9443 11.0947 20.9824 11.0947 19.8789H15.1377C15.1572 20.5234 15.2695 21.0752 15.4746 21.5342C15.6797 21.9932 15.9678 22.3691 16.3389 22.6621C16.7002 22.9551 17.1348 23.1699 17.6426 23.3066C18.1602 23.4434 18.7266 23.5117 19.3418 23.5117C19.8887 23.5117 20.3721 23.4482 20.792 23.3213C21.2217 23.1943 21.583 23.0186 21.876 22.7939C22.1689 22.5693 22.3936 22.3008 22.5498 21.9883C22.7061 21.666 22.7842 21.3145 22.7842 20.9336Z" fill="white"/>
</g>
<defs>
<clipPath id="clip0_0_1">
<rect width="32" height="32" rx="5" fill="white"/>
</clipPath>
</defs>
</svg>
