<svg width="32" height="32" viewBox="0 0 32 32" fill="none" xmlns="http://www.w3.org/2000/svg">
<g clip-path="url(#clip0_2_2)">
<rect width="32" height="32" rx="5" fill="#009B94"/>
<path d="M4.95 27V12.12H9.36V27H4.95ZM7.14 9.93C6.4 9.93 5.8 9.72 5.34 9.3C4.88 8.88 4.65 8.32 4.65 7.62C4.65 6.92 4.88 6.36 5.34 5.94C5.8 5.52 6.4 5.31 7.14 5.31C7.88 5.31 8.48 5.52 8.94 5.94C9.4 6.36 9.63 6.92 9.63 7.62C9.63 8.32 9.4 8.88 8.94 9.3C8.48 9.72 7.88 9.93 7.14 9.93ZM22.7842 21.4336C22.7842 21.0527 22.7158 20.6963 22.5791 20.3643C22.4521 20.0322 22.2324 19.7197 21.9199 19.4268C21.5977 19.1436 21.1777 18.8848 20.6602 18.6504C20.1523 18.4062 19.5176 18.1816 18.7559 17.9766C17.5742 17.6543 16.5342 17.2637 15.6357 16.8047C14.7471 16.3457 14.0195 15.8428 13.4531 15.2959C12.8867 14.749 12.457 14.1436 12.1641 13.4795C11.8809 12.8154 11.7393 12.0928 11.7393 11.3115C11.7393 10.4131 11.9297 9.59766 12.3105 8.86523C12.6914 8.13281 13.2188 7.50781 13.8926 6.99023C14.5664 6.47266 15.3623 6.07715 16.2803 5.80371C17.1982 5.52051 18.1943 5.37891 19.2686 5.37891C20.3818 5.37891 21.3975 5.54004 22.3154 5.8623C23.2432 6.18457 24.0391 6.63379 24.7031 7.20996C25.3672 7.7959 25.8848 8.48926 26.2559 9.29004C26.627 10.0908 26.8125 10.9697 26.8125 11.9268H22.7988C22.7793 11.4482 22.6914 11.0088 22.5352 10.6084C22.3887 10.208 22.1689 9.86133 21.876 9.56836C21.5732 9.28516 21.1973 9.06543 20.748 8.90918C20.3086 8.74316 19.791 8.66016 19.1953 8.66016C18.6484 8.66016 18.1602 8.72852 17.7305 8.86523C17.3105 8.99219 16.9541 9.17285 16.6611 9.40723C16.3682 9.65137 16.1436 9.93945 15.9873 10.2715C15.8408 10.5938 15.7676 10.9453 15.7676 11.3262C15.7676 11.7266 15.8652 12.0879 16.0605 12.4102C16.2656 12.7324 16.5586 13.0205 16.9395 13.2744C17.3203 13.5381 17.7793 13.7773 18.3164 13.9922C18.8633 14.207 19.4785 14.4072 20.1621 14.5928C20.8945 14.7979 21.5928 15.0469 22.2568 15.3398C22.9209 15.6328 23.5312 15.9697 24.0879 16.3506C24.9277 16.9756 25.5967 17.7031 26.0947 18.5332C26.5928 19.3633 26.8418 20.3203 26.8418 21.4043C26.8418 22.3418 26.6514 23.1768 26.2705 23.9092C25.8994 24.6318 25.3818 25.2422 24.7178 25.7402C24.0537 26.248 23.2627 26.6338 22.3447 26.8975C21.4268 27.1514 20.4258 27.2783 19.3418 27.2783C18.2773 27.2783 17.2227 27.1221 16.1777 26.8096C15.1426 26.4873 14.2393 26.0186 13.4678 25.4033C12.7354 24.7979 12.1543 24.085 11.7246 23.2646C11.3047 22.4443 11.0947 21.4824 11.0947 20.3789H15.1377C15.1572 21.0234 15.2695 21.5752 15.4746 22.0342C15.6797 22.4932 15.9678 22.8691 16.3389 23.1621C16.7002 23.4551 17.1348 23.6699 17.6426 23.8066C18.1602 23.9434 18.7266 24.0117 19.3418 24.0117C19.8887 24.0117 20.3721 23.9482 20.792 23.8213C21.2217 23.6943 21.583 23.5186 21.876 23.2939C22.1689 23.0693 22.3936 22.8008 22.5498 22.4883C22.7061 22.166 22.7842 21.8145 22.7842 21.4336Z" fill="white"/>
</g>
<defs>
<clipPath id="clip0_2_2">
<rect width="32" height="32" rx="5" fill="white"/>
</clipPath>
</defs>
</svg>
